<?xml version="1.0" encoding="UTF-8"?>
<svg id="Layer_1" data-name="Layer 1" xmlns="http://www.w3.org/2000/svg" viewBox="0 0 252.52 145.8">
  <g>
    <rect y="22.1" width="252.52" height="103.34" style="fill: none;"/>
    <path d="M93.5,115.85c.09,1.2-.53,1.79-1.86,1.79-.84,0-3.27-.49-7.27-1.46-4.01-.97-6.47-1.64-7.4-1.99-9.25,3.63-18.13,5.45-26.63,5.45-13.68,0-24.9-4.56-33.67-13.68-8.68-8.99-13.02-20.34-13.02-34.07s4.21-25.68,12.62-34.93c8.68-9.56,19.94-14.34,33.8-14.34,6.73,0,13.06,1.28,18.99,3.85,6.42,2.83,11.47,6.82,15.14,11.95.75,1.06,1.13,1.82,1.13,2.26,0,1.42-1.98,4.59-5.94,9.53-3.96,4.94-6.52,7.4-7.67,7.4-.27,0-1.28-.91-3.05-2.72-2.17-2.17-4.38-3.85-6.64-5.05-3.37-1.81-7.08-2.72-11.16-2.72-6.64,0-11.91,2.48-15.8,7.44-3.63,4.56-5.45,10.25-5.45,17.07,0,7.22,1.88,12.93,5.64,17.13,3.9,4.34,9.41,6.51,16.54,6.51,4.52,0,9.56-1.13,15.14-3.39-.13-1.46-.53-5.18-1.2-11.16-.58-4.6-.86-8.32-.86-11.16,0-.84.29-1.35.86-1.53.22-.09.58-.13,1.06-.13,1.28,0,3.22.12,5.81.37,2.59.24,4.55.37,5.88.37,1.42,0,3.54-.1,6.38-.3,2.83-.2,4.96-.3,6.38-.3,1.11,0,1.66.73,1.66,2.19,0,2.12-.12,5.33-.37,9.63-.24,4.29-.37,7.5-.37,9.63,0,5.71.42,14.26,1.26,25.63l.07.73Z" style="fill: #fff;"/>
    <path d="M132.59,88.68c0,1.59-.08,3.97-.23,7.15s-.23,5.56-.23,7.15.05,3.87.16,6.96.16,5.4.16,6.93c0,.58-.27.95-.81,1.1-.82.21-2.55.32-5.19.32-2.34,0-3.97-.06-4.9-.19-.41-.06-.67-.32-.77-.77l-.19-1.93c-.11-.99-.26-1.48-.45-1.48.3,0-.78.73-3.25,2.19s-4.72,2.19-6.74,2.19c-5.69,0-9.07-2.57-10.12-7.7-.47-2.38-.71-5.84-.71-10.38,0-4.9.4-8.77,1.19-11.6.24-.88.68-1.32,1.32-1.32.99,0,2.49.01,4.51.03s3.52.03,4.51.03c.67,0,1,.28,1,.84,0,.15-.02.38-.06.68-.45,2.92-.68,5.89-.68,8.89,0,3.74.12,6.29.35,7.67.39,2.36,1.79,3.54,4.22,3.54.95,0,1.97-.42,3.08-1.26,1.11-.84,1.68-1.71,1.72-2.61.04-.79.06-6.19.06-16.18,0-.71.05-1.13.16-1.26.13-.21.52-.32,1.16-.32,1.05,0,2.64.01,4.75.03,2.12.02,3.7.03,4.75.03.64,0,1.02.16,1.13.48.04.17.06.43.06.77Z" style="fill: #fff;"/>
    <path d="M149.64,98.57c0,5.87.02,10.37.06,13.5,0,.49.03,1.34.1,2.55.06,1.1.1,1.94.1,2.55,0,.45-.27.72-.81.81-.97.17-2.71.26-5.22.26s-4.22-.09-4.93-.26c-.47-.11-.74-.4-.81-.87v-1.39c0-1.91.02-4.77.06-8.59s.06-6.67.06-8.56c0-9.02.01-13.14.03-12.34-.06-4.75-.33-8.84-.81-12.28-.04-.24-.06-.42-.06-.55,0-.47.28-.71.84-.71h11.5c.54,0,.78.23.74.68l-.03.58c-.56,9.28-.84,17.49-.84,24.62Z" style="fill: #fff;"/>
    <path d="M190.47,102.22c0,4.51-1.29,8.28-3.87,11.31-2.75,3.22-6.34,4.83-10.76,4.83-3.22,0-5.82-.92-7.8-2.77-.15-.13-.28-.19-.39-.19-.21,0-.41.4-.6,1.19s-.4,1.24-.66,1.32c-.37.11-3.43.16-9.18.16-1.35,0-2.03-.25-2.03-.74,0-.06.02-.23.06-.48.43-3.42.64-9.93.64-19.53s-.32-17.16-.97-23.94l-.03-.35c0-.34.33-.54,1-.58.47-.02,2.34-.18,5.61-.48,2.3-.21,4.17-.32,5.61-.32.41,0,.61.35.61,1.06,0,.84-.05,1.94-.16,3.32-.13,1.7-.2,2.81-.23,3.35-.11,2.13-.16,5.03-.16,8.7,0,.67.17,1,.52,1,.17,0,.33-.09.48-.26,1.93-2.06,4.47-3.09,7.61-3.09,4.71,0,8.38,1.6,11.02,4.8,2.45,2.96,3.67,6.86,3.67,11.7ZM178.8,101.86c0-1.78-.55-3.29-1.64-4.53s-2.52-1.85-4.29-1.85-3.23.62-4.27,1.85-1.56,2.77-1.56,4.59.5,3.42,1.51,4.58c1.07,1.22,2.54,1.84,4.38,1.84s3.28-.63,4.35-1.9c1.01-1.18,1.51-2.71,1.51-4.58Z" style="fill: #fff;"/>
    <path d="M206.32,103.18c0,1.57.03,3.91.1,7.01.06,3.11.1,5.43.1,6.98,0,.45-.27.72-.81.81-.73.13-2.37.19-4.93.19s-4.23-.06-4.96-.19c-.47-.09-.76-.23-.87-.42-.04-.09-.06-.41-.06-.97,0-1.48.03-3.71.1-6.69s.1-5.22.1-6.72c0-6.1-.24-10.96-.71-14.57-.04-.34-.06-.57-.06-.68,0-.43.29-.64.87-.64s1.52.06,2.75.19,2.17.19,2.79.19,1.56-.05,2.8-.16,2.18-.16,2.8-.16c.52,0,.77.21.77.64,0,.09-.02.29-.06.61-.47,4.19-.71,9.04-.71,14.57ZM207.16,79.24c0,3.74-2.11,5.61-6.32,5.61-1.8,0-3.3-.47-4.48-1.42-1.29-1.03-1.93-2.43-1.93-4.19s.67-3.05,2-4.12c1.22-.99,2.7-1.48,4.42-1.48s3.13.5,4.35,1.51c1.31,1.07,1.97,2.44,1.97,4.09Z" style="fill: #fff;"/>
    <path d="M244.58,117.04c0,.58-.3.91-.9,1s-2.17.13-4.71.13c-2.71,0-4.38-.06-5.03-.19s-.97-.57-.97-1.32c0-1.01.03-2.54.1-4.58s.1-3.58.1-4.61c0-.79-.02-1.98-.06-3.56-.04-1.58-.06-2.77-.06-3.56,0-2.94-1.28-4.42-3.83-4.42-.84,0-1.82.37-2.93,1.1-1.2.82-1.8,1.62-1.8,2.42v17.4c0,.71-.33,1.11-1,1.19-.75.09-2.29.13-4.61.13-2.51,0-4.15-.06-4.9-.19-.67-.11-1-.46-1-1.06,0-1.68.01-4.2.03-7.57s.03-5.91.03-7.61c0-5.35-.42-9.55-1.26-12.6-.04-.19-.06-.35-.06-.48,0-.34.16-.58.48-.71,1.35-.15,3.16-.39,5.41-.71,3.42-.67,5.34-1,5.77-1,.24,0,.42.73.55,2.17.13,1.45.31,2.18.55,2.18-.24,0,.92-.75,3.46-2.24,2.55-1.49,4.78-2.24,6.69-2.24,2.73,0,5.01.64,6.83,1.93,2.04,1.48,3.06,3.54,3.06,6.19v10.28c0,1.4.01,3.49.03,6.27.02,2.78.03,4.87.03,6.27Z" style="fill: #fff;"/>
  </g>
  <g>
    <path d="M142.82,11.82c0-.57-.1.28-.31,2.55-.28,2.85-.5,6.51-.66,10.96-.21,5.04-.31,10.78-.31,17.2,0,10.62.29,18.18.89,22.68.05.49.08.8.08.93,0,.28-.19.45-.58.5-.93.13-4.33.19-10.22.19-1.39,0-2.19-.27-2.39-.81-.05-.98-.1-1.95-.15-2.93-.03-.21-.13-.41-.31-.62-.15.08-.35.23-.58.46-2.78,2.73-6.25,4.09-10.42,4.09-5.43,0-9.77-1.9-13.04-5.71-3.11-3.63-4.67-8.2-4.67-13.73s1.53-10.22,4.59-13.85c3.24-3.86,7.61-5.79,13.12-5.79,3.88,0,6.91,1.23,9.07,3.7.36.41.62.62.77.62.23,0,.35-.33.35-1,0-1.98-.05-4.94-.15-8.87-.1-3.93-.15-6.88-.15-8.83,0-.75.21-1.17.62-1.27,1.65-.08,3.91-.23,6.79-.46,5.14-.64,7.42-.96,6.83-.96.57,0,.85.32.85.96ZM128.27,47.27c0-2.03-.71-3.81-2.12-5.34-1.42-1.53-3.12-2.29-5.13-2.29-2.11,0-3.79.77-5.03,2.29-1.25,1.53-1.87,3.36-1.87,5.5s.63,3.84,1.89,5.28c1.29,1.54,2.96,2.31,5.01,2.31s3.78-.77,5.17-2.31,2.08-3.36,2.08-5.44Z" style="fill: #ffc400;"/>
    <path d="M183.86,45.61c0,2.6-.84,4.08-2.51,4.44-.28.05-2.95.33-7.98.85-3.04.33-7.56.73-13.58,1.2.36,1.67,1.45,2.94,3.28,3.82,1.49.72,3.19,1.08,5.09,1.08,2.29,0,4.59-.62,6.91-1.85.98-.62,1.95-1.23,2.93-1.85.54.26,1.45,1.57,2.72,3.93,1.27,2.37,1.91,3.87,1.91,4.51,0,.18-.19.48-.58.89-3.14,3.37-8.01,5.05-14.62,5.05-6.12,0-11.06-1.79-14.81-5.36-3.86-3.63-5.79-8.47-5.79-14.54s1.72-10.76,5.17-14.54c3.55-3.91,8.26-5.86,14.12-5.86,4.94,0,9.13,1.8,12.57,5.4,3.45,3.6,5.17,7.88,5.17,12.85ZM170.36,43.26c0-1.59-.57-3-1.7-4.2-1.13-1.21-2.48-1.81-4.05-1.81s-2.96.68-4.01,2.04c-.98,1.26-1.47,2.74-1.47,4.44,0,.69.36,1.04,1.08,1.04,1.9,0,4.86-.3,8.87-.89.85-.13,1.27-.33,1.27-.62Z" style="fill: #ffc400;"/>
    <path d="M225.21,39.78c0,4.4-.14,7-.42,7.79-.59,1.83-2.37,4.92-5.32,9.3-2.57,3.76-4.77,6.69-6.6,8.8-.67.8-2.69,1.2-6.06,1.2-2.93,0-4.83-.1-5.71-.31-.54-.13-.99-.39-1.35-.77-1.54-1.67-3.74-4.58-6.6-8.72-3.06-4.45-4.89-7.5-5.48-9.14-.64-1.77-.96-4.44-.96-7.98,0-1,.01-2.51.04-4.53.03-2.02.04-3.54.04-4.57,0-.67.45-1,1.35-1,1.31,0,3.29.04,5.92.12s4.61.12,5.92.12c.59,0,.89.4.89,1.2,0,.72-.05,1.81-.15,3.26-.1,1.45-.15,2.55-.15,3.3,0,2.67.08,4.86.23,6.56.08.87.82,2.52,2.24,4.94,1.47,2.55,2.53,3.82,3.2,3.82s1.67-1.25,3.09-3.74c1.36-2.34,2.1-3.93,2.2-4.78.21-1.83.31-4.04.31-6.63,0-.75-.08-1.87-.23-3.38-.15-1.5-.23-2.62-.23-3.34,0-.8.27-1.2.81-1.2.62,0,1.54.01,2.76.04,1.22.03,2.14.04,2.76.04s1.55-.05,2.8-.15c1.25-.1,2.18-.15,2.8-.15s1.07.33,1.27,1c.44,1.47.66,4.45.66,8.95Z" style="fill: #ffc400;"/>
  </g>
</svg>